<?xml version="1.0" encoding="utf-8"?>
<!-- Generator: Adobe Illustrator 16.0.0, SVG Export Plug-In . SVG Version: 6.00 Build 0)  -->
<!DOCTYPE svg PUBLIC "-//W3C//DTD SVG 1.1//EN" "http://www.w3.org/Graphics/SVG/1.1/DTD/svg11.dtd">
<svg version="1.1" id="Settings" xmlns="http://www.w3.org/2000/svg" xmlns:xlink="http://www.w3.org/1999/xlink" x="0px" y="0px"
	 width="512px" height="512px" viewBox="0 0 512 512" enable-background="new 0 0 512 512" xml:space="preserve">
<path id="LinkedIn_3_" fill="#FFFFFF" d="M443.5,289.031v131.167h-76.042V297.821c0-30.746-10.999-51.704-38.497-51.704
	c-21.045,0-33.518,14.116-39.017,27.801c-1.991,4.893-2.533,11.713-2.533,18.534v127.746h-76.042c0,0,1.018-207.252,0-228.731
	h76.042v32.434c-0.151,0.217-0.368,0.477-0.498,0.736h0.498v-0.736c10.112-15.589,28.126-37.826,68.528-37.826
	C405.998,186.076,443.5,218.792,443.5,289.031z M131.788,81.215c-26.014,0-43.033,17.062-43.033,39.515
	c0,21.934,16.521,39.558,42.037,39.558h0.498c26.524,0,43.022-17.625,43.022-39.558C173.814,98.277,157.813,81.215,131.788,81.215z
	 M93.269,420.198h76.02V191.467h-76.02V420.198z"/>
</svg>
