<?xml version="1.0" encoding="utf-8"?>
<!-- Generator: Adobe Illustrator 16.0.0, SVG Export Plug-In . SVG Version: 6.00 Build 0)  -->
<!DOCTYPE svg PUBLIC "-//W3C//DTD SVG 1.1//EN" "http://www.w3.org/Graphics/SVG/1.1/DTD/svg11.dtd">
<svg version="1.1" id="Settings" xmlns="http://www.w3.org/2000/svg" xmlns:xlink="http://www.w3.org/1999/xlink" x="0px" y="0px"
	 width="512px" height="512px" viewBox="0 0 512 512" enable-background="new 0 0 512 512" xml:space="preserve">
<path id="Github__x28_alt_x29__3_" fill="#FFFFFF" d="M363.72,81.778c5.715,13.001,9.462,34.695,3.903,50.58
	c22.72,19.396,30.54,66.497,19.543,105.076c32.354,2.46,70.942-1.183,95.822,8.71c-23.256-2.962-55.04-8.84-85.065-6.819
	c-5.698,0.404-14.107-0.217-13.71,7.795c34.756,2.754,69.287,5.689,97.791,14.623c-28.263-4.618-62.639-11.654-97.791-12.681
	c-14.484,28.66-43.73,42.748-84.081,45.719c4.367,9.443,12.673,13.035,14.676,28.246c3.021,22.686-4.696,55.869,2.935,70.977
	c3.643,7.235,9.635,7.441,13.71,13.623c-9.894,11.707-34.395-1.312-37.208-13.623c-4.765-21.098,7.321-53.781-5.852-68.11
	c0.948,23.031-5.422,55.335,1,75.914c2.538,8.064,9.825,11.137,7.82,18.475c-45.941,4.661-26.726-59.444-34.253-97.255
	c-6.906,0.466-3.887,10.359-3.919,14.537c-0.155,36.965,7.578,87.657-32.234,82.718c-1.21-7.77,5.335-10.41,7.82-17.507
	c7.251-20.771-1.381-51.796,1.969-76.882c-15.21,11.498,1.571,51.519-7.822,71.995c-5.42,11.794-22.928,16.955-36.206,11.707
	c1.727-8.822,10.825-7.391,14.676-15.592c5.369-11.412,0.034-27.883,1.969-44.751c-28.16,5.611-49.958-0.777-60.672-18.456
	c-4.771-7.943-5.956-17.318-11.732-24.346c-5.721-7.026-14.889-7.94-17.583-17.489c34.849-8.373,36.146,35.86,67.491,36.932
	c9.598,0.379,14.571-2.764,23.48-4.835c2.469-11.154,7.786-19.476,15.642-25.327c-38.95-5.267-71.116-17.456-86.086-46.669
	c-35.427,1.752-67.8,6.5-97.789,13.648c27.244-9.902,60.825-13.459,96.814-14.616c-2.131-12.768-20.719-9.254-32.234-8.77
	c-21.478,0.966-48.506,3.643-65.556,6.819c24.767-8.814,59.401-7.683,92.914-7.795c-10.254-32.096-6.726-83.089,15.642-102.133
	c-6.337-15.944-4.369-42.007,3.936-54.438c24.932,1.08,40.04,11.948,55.734,22.393c19.422-5.533,39.848-8.313,66.454-6.854
	c11.239,0.621,22.843,5.664,31.318,4.851c8.254-0.777,17.369-10.031,25.417-13.621C342.862,83.937,351.703,82.185,363.72,81.778z"/>
</svg>
