<?xml version="1.0" encoding="utf-8"?>
<!-- Generator: Adobe Illustrator 16.0.0, SVG Export Plug-In . SVG Version: 6.00 Build 0)  -->
<!DOCTYPE svg PUBLIC "-//W3C//DTD SVG 1.1//EN" "http://www.w3.org/Graphics/SVG/1.1/DTD/svg11.dtd">
<svg version="1.1" id="Settings" xmlns="http://www.w3.org/2000/svg" xmlns:xlink="http://www.w3.org/1999/xlink" x="0px" y="0px"
	 width="512px" height="512px" viewBox="0 0 512 512" enable-background="new 0 0 512 512" xml:space="preserve">
<path fill="#FFFDFD" d="M453.322,134.98c-14.555,6.44-30.186,10.818-46.579,12.758c16.738-10.066,29.598-25.95,35.649-44.861
	c-15.675,9.29-33.033,16.029-51.479,19.697c-14.82-15.806-35.893-25.605-59.238-25.605c-44.729,0-81.054,36.26-81.054,81.054
	c0,6.352,0.71,12.526,2.129,18.5c-67.431-3.425-127.147-35.693-167.131-84.723c-6.983,11.927-10.985,25.872-10.985,40.737
	c0,28.178,14.289,52.954,36.071,67.508c-13.325-0.421-25.806-4.068-36.725-10.143c0,0.321,0,0.655,0,1.031
	c0,39.274,27.946,72.053,65.002,79.48c-6.795,1.885-13.945,2.826-21.338,2.826c-5.222,0-10.299-0.466-15.254-1.43
	c10.321,32.203,40.261,55.691,75.745,56.356c-27.769,21.705-62.73,34.696-100.708,34.696c-6.54,0-13.002-0.388-19.354-1.151
	c35.893,22.989,78.548,36.413,124.297,36.413c149.149,0,230.735-123.543,230.735-230.713c0-3.503-0.133-7.006-0.243-10.464
	C428.691,165.508,442.459,151.242,453.322,134.98z"/>
</svg>
